<svg width="41" height="40" viewBox="0 0 41 40" fill="none" xmlns="http://www.w3.org/2000/svg">
<path d="M32.9406 7H32.9303L30.1499 7.02679L9.84615 7H9.83346L6.91899 7.02679C5.00166 7.03084 3.5 8.62901 3.5 10.6687V29.3589C3.5 31.4002 5.00721 33 6.92692 33H6.93882L9.85091 32.9732L30.1523 33H30.1657L32.9477 32.9732C33.8903 32.9704 34.7933 32.5856 35.4591 31.903C36.1249 31.2204 36.4992 30.2957 36.5 29.3313V10.6419C36.4989 9.67636 36.1236 8.75065 35.4563 8.06788C34.789 7.38512 33.8843 7.00107 32.9406 7ZM11.1154 25.1813C11.1154 25.5257 10.9817 25.856 10.7436 26.0995C10.5056 26.3431 10.1828 26.4799 9.84615 26.4799C9.50953 26.4799 9.1867 26.3431 8.94867 26.0995C8.71065 25.856 8.57692 25.5257 8.57692 25.1813V14.792C8.57692 14.4475 8.71065 14.1172 8.94867 13.8737C9.1867 13.6301 9.50953 13.4933 9.84615 13.4933C10.1828 13.4933 10.5056 13.6301 10.7436 13.8737C10.9817 14.1172 11.1154 14.4475 11.1154 14.792V25.1813ZM16.1923 27.7786C16.1923 28.123 16.0586 28.4533 15.8206 28.6969C15.5825 28.9404 15.2597 29.0772 14.9231 29.0772C14.5865 29.0772 14.2636 28.9404 14.0256 28.6969C13.7876 28.4533 13.6538 28.123 13.6538 27.7786V12.1946C13.6538 11.8502 13.7876 11.5199 14.0256 11.2764C14.2636 11.0328 14.5865 10.896 14.9231 10.896C15.2597 10.896 15.5825 11.0328 15.8206 11.2764C16.0586 11.5199 16.1923 11.8502 16.1923 12.1946V27.7786ZM21.2692 26.4799C21.2692 26.8243 21.1355 27.1547 20.8975 27.3982C20.6595 27.6418 20.3366 27.7786 20 27.7786C19.6634 27.7786 19.3405 27.6418 19.1025 27.3982C18.8645 27.1547 18.7308 26.8243 18.7308 26.4799V13.4933C18.7308 13.1489 18.8645 12.8186 19.1025 12.575C19.3405 12.3315 19.6634 12.1946 20 12.1946C20.3366 12.1946 20.6595 12.3315 20.8975 12.575C21.1355 12.8186 21.2692 13.1489 21.2692 13.4933V26.4799ZM26.3462 27.7786C26.3462 28.123 26.2124 28.4533 25.9744 28.6969C25.7364 28.9404 25.4135 29.0772 25.0769 29.0772C24.7403 29.0772 24.4175 28.9404 24.1794 28.6969C23.9414 28.4533 23.8077 28.123 23.8077 27.7786V12.1946C23.8077 11.8502 23.9414 11.5199 24.1794 11.2764C24.4175 11.0328 24.7403 10.896 25.0769 10.896C25.4135 10.896 25.7364 11.0328 25.9744 11.2764C26.2124 11.5199 26.3462 11.8502 26.3462 12.1946V27.7786ZM31.4231 25.1813C31.4231 25.5257 31.2894 25.856 31.0513 26.0995C30.8133 26.3431 30.4905 26.4799 30.1538 26.4799C29.8172 26.4799 29.4944 26.3431 29.2564 26.0995C29.0183 25.856 28.8846 25.5257 28.8846 25.1813V14.792C28.8846 14.4475 29.0183 14.1172 29.2564 13.8737C29.4944 13.6301 29.8172 13.4933 30.1538 13.4933C30.4905 13.4933 30.8133 13.6301 31.0513 13.8737C31.2894 14.1172 31.4231 14.4475 31.4231 14.792V25.1813Z" fill="#4F46E5"/>
</svg>
