<svg width="40" height="40" viewBox="0 0 40 40" fill="none" xmlns="http://www.w3.org/2000/svg">
<path fill-rule="evenodd" clip-rule="evenodd" d="M37.9388 40L40 37.9388L2.06115 0L0 2.06119L3.36358 5.42475C2.57301 6.16744 2.0833 7.24658 2.0833 8.46641V29.4423C2.0833 31.7333 3.81406 33.5288 6.01852 33.5288H6.03213L9.37614 33.4987L31.4659 33.5272L37.9388 40ZM22.4881 24.5493L19.5731 21.6343V26.2113C19.5731 26.5978 19.7266 26.9685 20 27.2419C20.2733 27.5152 20.6441 27.6688 21.0306 27.6688C21.4171 27.6688 21.7879 27.5152 22.0611 27.2419C22.3345 26.9685 22.4881 26.5978 22.4881 26.2113V24.5493ZM16.6581 18.7193L13.7432 15.8044V27.6688C13.7432 28.0553 13.8967 28.426 14.1701 28.6994C14.4433 28.9727 14.8141 29.1262 15.2006 29.1262C15.5872 29.1262 15.9579 28.9727 16.2312 28.6994C16.5046 28.426 16.6581 28.0553 16.6581 27.6688V18.7193ZM9.59213 11.6534L10.8113 12.8725C10.8225 12.9453 10.8282 13.0193 10.8282 13.0939V23.8884C10.8282 24.275 10.6747 24.6457 10.4013 24.919C10.128 25.1923 9.75723 25.3459 9.37071 25.3459C8.98419 25.3459 8.61342 25.1923 8.34014 24.919C8.06677 24.6457 7.91323 24.275 7.91323 23.8884V13.0939C7.91323 12.7074 8.06677 12.3367 8.34014 12.0633C8.61342 11.79 8.98419 11.6364 9.37071 11.6364C9.44535 11.6364 9.51927 11.6422 9.59213 11.6534Z" fill="#EF4444"/>
<path fill-rule="evenodd" clip-rule="evenodd" d="M38.7825 32.2976C38.7322 32.348 38.6807 32.397 38.628 32.4445L28.318 22.1345V10.179C28.318 9.79242 28.1644 9.42169 27.8911 9.14836C27.6178 8.87504 27.247 8.72148 26.8605 8.72148C26.474 8.72148 26.1032 8.87504 25.8299 9.14836C25.5566 9.42169 25.403 9.79242 25.403 10.179V19.2195L22.4881 16.3045V11.6364C22.4881 11.2499 22.3345 10.8792 22.0611 10.6058C21.7879 10.3325 21.4171 10.179 21.0306 10.179C20.6441 10.179 20.2733 10.3325 20 10.6058C19.7266 10.8792 19.5731 11.2499 19.5731 11.6364V13.3896L10.534 4.35052L32.6859 4.3791L35.8787 4.34903H35.8905C36.9742 4.35023 38.0131 4.78125 38.7794 5.54751C39.5456 6.31377 39.9766 7.35271 39.9779 8.43637V29.4113C39.9769 30.4937 39.5471 31.5315 38.7825 32.2976ZM34.1479 23.8884C34.1479 24.275 33.9944 24.6457 33.721 24.919C33.4477 25.1923 33.077 25.3459 32.6904 25.3459C32.3039 25.3459 31.9331 25.1923 31.6599 24.919C31.3865 24.6457 31.233 24.275 31.233 23.8884V13.0939C31.233 12.7074 31.3865 12.3367 31.6599 12.0633C31.9331 11.79 32.3039 11.6364 32.6904 11.6364C33.077 11.6364 33.4477 11.79 33.721 12.0633C33.9944 12.3367 34.1479 12.7074 34.1479 13.0939V23.8884Z" fill="#EF4444"/>
</svg>
