<svg width="41" height="40" viewBox="0 0 41 40" fill="none" xmlns="http://www.w3.org/2000/svg">
<path d="M31.3889 6H14.2778V9.73333L17.0933 11.9889C17.28 12.1289 17.3889 12.3622 17.3889 12.5956V19.2222C17.3889 19.6578 17.0467 20 16.6111 20H10.3889C9.95333 20 9.61111 19.6578 9.61111 19.2222V12.5956C9.61111 12.3622 9.72 12.1289 9.90667 11.9889L12.7222 9.73333V6H6.5V21.5556C6.5 24.9933 9.28444 27.7778 12.7222 27.7778H22.0556C25.4933 27.7778 28.2778 24.9933 28.2778 21.5556V16.8889H31.3889C32.214 16.8889 33.0053 16.5611 33.5888 15.9777C34.1722 15.3942 34.5 14.6029 34.5 13.7778V9.11111C34.5 7.38444 33.1156 6 31.3889 6ZM31.3889 13.7778H28.2778V9.11111H31.3889V13.7778ZM6.5 30.8889H31.3889V34H6.5V30.8889Z" fill="#4F46E5"/>
</svg>
