<svg width="20" height="20" viewBox="0 0 20 20" fill="none" xmlns="http://www.w3.org/2000/svg">
<g id="Calendar">
<path id="Icon" d="M5.00002 4.5H5.50002V4V3C5.50002 2.72386 5.72387 2.5 6.00002 2.5C6.27616 2.5 6.50002 2.72386 6.50002 3V4V4.5H7.00002H13H13.5V4V3C13.5 2.72386 13.7239 2.5 14 2.5C14.2762 2.5 14.5 2.72386 14.5 3V4V4.5H15H16C16.8284 4.5 17.5 5.17157 17.5 6V16C17.5 16.8284 16.8284 17.5 16 17.5H4.00002C3.17159 17.5 2.50002 16.8284 2.50002 16V6C2.50002 5.17157 3.17159 4.5 4.00002 4.5H5.00002ZM6.00002 6.5C5.17159 6.5 4.50002 7.17157 4.50002 8C4.50002 8.82843 5.17159 9.5 6.00002 9.5H14C14.8284 9.5 15.5 8.82843 15.5 8C15.5 7.17157 14.8284 6.5 14 6.5H6.00002Z" fill="#9CA3AF" stroke="#9CA3AF"/>
</g>
</svg>
