<svg width="24" height="24" viewBox="0 0 24 24" fill="none" xmlns="http://www.w3.org/2000/svg">
<path d="M11.9996 7.19999C10.6741 7.19999 9.59961 6.12548 9.59961 4.79999C9.59961 3.47451 10.6741 2.39999 11.9996 2.39999C13.3251 2.39999 14.3996 3.47451 14.3996 4.79999C14.3996 6.12548 13.3251 7.19999 11.9996 7.19999Z" fill="#9CA3AF"/>
<path d="M11.9996 14.4C10.6741 14.4 9.59961 13.3255 9.59961 12C9.59961 10.6745 10.6741 9.59999 11.9996 9.59999C13.3251 9.59999 14.3996 10.6745 14.3996 12C14.3996 13.3255 13.3251 14.4 11.9996 14.4Z" fill="#9CA3AF"/>
<path d="M11.9996 21.6C10.6741 21.6 9.59961 20.5255 9.59961 19.2C9.59961 17.8745 10.6741 16.8 11.9996 16.8C13.3251 16.8 14.3996 17.8745 14.3996 19.2C14.3996 20.5255 13.3251 21.6 11.9996 21.6Z" fill="#9CA3AF"/>
</svg>
