<svg width="40" height="40" viewBox="0 0 40 40" fill="none" xmlns="http://www.w3.org/2000/svg">
<path d="M27.9286 12.0625C29.5517 12.3544 30.883 13.2294 31.9236 14.6875C32.8392 15.9794 33.4635 17.6044 33.796 19.5625C34.0879 21.3544 34.066 23.1456 33.7335 24.9375C33.2342 27.8956 32.2354 30.375 30.7373 32.375C28.9474 34.7919 26.7005 36 23.9956 36C23.3293 36 22.6018 35.7919 21.8106 35.375C21.2694 35.0419 20.6662 34.875 20 34.875C19.3338 34.875 18.7313 35.0419 18.1894 35.375C17.3982 35.7919 16.6707 36 16.0044 36C13.2995 36 11.0526 34.7919 9.26266 32.375C7.76456 30.375 6.76582 27.8956 6.26646 24.9375C5.93396 23.1456 5.91209 21.3544 6.20396 19.5625C6.53645 17.6044 7.16082 15.9794 8.07643 14.6875C9.11704 13.2294 10.4483 12.3544 12.0714 12.0625C13.0701 11.8956 14.4432 12.0419 16.1913 12.5C17.6894 12.9169 18.9588 13.4169 19.9994 14C21.04 13.4169 22.3093 12.9169 23.8074 12.5C25.5562 12.0419 26.9299 11.8956 27.9286 12.0625ZM24.4949 9.5C23.9124 10.0419 23.1418 10.4375 22.185 10.6875C21.5187 10.8956 20.7912 11 20 11L19.0638 10.9375C18.9806 10.3544 18.9806 9.6875 19.0638 8.9375C19.2306 7.4375 19.7088 6.29187 20.4994 5.5C21.0819 4.95812 21.8525 4.5625 22.8093 4.3125C23.4756 4.10438 24.2031 4 24.9943 4L25.9305 4.0625L25.993 5C25.993 5.79188 25.8887 6.52063 25.6812 7.1875C25.4318 8.14563 25.0368 8.91687 24.4949 9.5Z" fill="#4F46E5"/>
</svg>
