<svg width="24" height="24" viewBox="0 0 24 24" fill="none" xmlns="http://www.w3.org/2000/svg">
<g id="fluent:food-apple-24-filled">
<path id="Vector" d="M5.471 3.42004C5.42861 4.12968 5.53271 4.84045 5.77683 5.50813C6.02095 6.17581 6.39987 6.7861 6.89 7.30104C5.93736 7.57418 5.08446 8.11791 4.43479 8.86628C3.78512 9.61465 3.36659 10.5355 3.23 11.517C2.90062 13.8726 3.38385 16.27 4.6 18.314L4.95 18.904C4.96327 18.9257 4.97762 18.9468 4.993 18.967L6.409 20.873C6.70892 21.277 7.09328 21.6107 7.53532 21.851C7.97737 22.0913 8.46647 22.2323 8.96858 22.2643C9.47069 22.2963 9.97374 22.2184 10.4427 22.0362C10.9117 21.854 11.3353 21.5717 11.684 21.209C11.7248 21.1666 11.7737 21.1329 11.8278 21.1099C11.8819 21.0868 11.9402 21.0749 11.999 21.0749C12.0578 21.0749 12.1161 21.0868 12.1702 21.1099C12.2243 21.1329 12.2732 21.1666 12.314 21.209C12.6627 21.5717 13.0863 21.854 13.5553 22.0362C14.0243 22.2184 14.5273 22.2963 15.0294 22.2643C15.5315 22.2323 16.0206 22.0913 16.4627 21.851C16.9047 21.6107 17.2891 21.277 17.589 20.873L19.005 18.966C19.0201 18.9458 19.0341 18.9247 19.047 18.903L19.398 18.313C20.6147 16.27 21.099 13.8733 20.771 11.518C20.6742 10.8241 20.4359 10.1573 20.071 9.55913C19.7061 8.96094 19.2223 8.44402 18.6496 8.04037C18.0768 7.63672 17.4273 7.35493 16.7412 7.21245C16.0551 7.06997 15.3471 7.06983 14.661 7.21204L12.76 7.60604H12.757C12.787 6.82604 12.909 5.98604 13.148 5.26804C13.438 4.40004 13.84 3.87804 14.288 3.69204C14.4717 3.61539 14.6174 3.46892 14.693 3.28486C14.7687 3.10079 14.7681 2.8942 14.6915 2.71054C14.6149 2.52688 14.4684 2.38118 14.2843 2.30551C14.1003 2.22984 13.8937 2.23039 13.71 2.30704C12.658 2.74604 12.06 3.78704 11.725 4.79304L11.679 4.93504C11.4327 4.45919 11.1147 4.02409 10.736 3.64504C10.2174 3.12583 9.59438 2.72272 8.90824 2.46241C8.22211 2.20209 7.4885 2.0905 6.756 2.13504C6.42171 2.15428 6.10611 2.29554 5.86907 2.53204C5.63202 2.76853 5.49002 3.0838 5.47 3.41804L5.471 3.42004ZM8.397 11.235C8.05 11.304 7.732 11.548 7.533 12.013C7.33 12.487 7.258 13.19 7.477 14.067C7.52202 14.2588 7.48976 14.4607 7.38719 14.6289C7.28463 14.7971 7.11999 14.9182 6.92886 14.966C6.73774 15.0138 6.53547 14.9845 6.36578 14.8844C6.19609 14.7843 6.0726 14.6214 6.022 14.431C5.742 13.309 5.795 12.261 6.154 11.422C6.517 10.575 7.199 9.94404 8.103 9.76404C8.20097 9.74091 8.3026 9.73774 8.40182 9.75472C8.50104 9.7717 8.59583 9.80848 8.68053 9.86287C8.76524 9.91726 8.83813 9.98815 8.89486 10.0713C8.95159 10.1545 8.991 10.2482 9.01074 10.3469C9.03048 10.4456 9.03015 10.5473 9.00977 10.6458C8.98938 10.7444 8.94936 10.8379 8.89209 10.9207C8.83482 11.0035 8.76147 11.0739 8.67641 11.1277C8.59136 11.1815 8.49633 11.2187 8.397 11.235Z" fill="#4F46E5"/>
</g>
</svg>
