<svg width="24" height="24" viewBox="0 0 24 24" fill="none" xmlns="http://www.w3.org/2000/svg">
<path fill-rule="evenodd" clip-rule="evenodd" d="M3.6001 3.59997C4.26284 3.59997 4.8001 4.13723 4.8001 4.79997L4.8001 19.1999C4.8001 19.8627 4.26284 20.3999 3.6001 20.3999C2.93735 20.3999 2.4001 19.8627 2.4001 19.1999L2.4001 4.79997C2.4001 4.13723 2.93736 3.59997 3.6001 3.59997ZM12.8486 7.55143C13.3173 8.02006 13.3173 8.77986 12.8486 9.24849L11.2972 10.8L20.4001 10.8C21.0628 10.8 21.6001 11.3372 21.6001 11.9999C21.6001 12.6627 21.0628 13.1999 20.4001 13.1999L11.2972 13.1999L12.8486 14.7514C13.3173 15.22 13.3173 15.9798 12.8486 16.4485C12.38 16.9171 11.6202 16.9171 11.1516 16.4485L7.55157 12.8485C7.32653 12.6234 7.2001 12.3182 7.2001 11.9999C7.2001 11.6817 7.32653 11.3765 7.55157 11.1514L11.1516 7.55143C11.6202 7.08281 12.38 7.08281 12.8486 7.55143Z" fill="#4F46E5"/>
</svg>
