<svg width="41" height="40" viewBox="0 0 41 40" fill="none" xmlns="http://www.w3.org/2000/svg">
<path d="M37.5 29.2632C37.5 31.0499 36.7836 32.7634 35.5083 34.0268C34.2331 35.2902 32.5035 36 30.7 36H23.9C22.0965 36 20.3669 35.2902 19.0917 34.0268C17.8164 32.7634 17.1 31.0499 17.1 29.2632V25.8947H37.5V29.2632ZM6.9 4H23.9C24.8017 4 25.6665 4.35489 26.3042 4.98659C26.9418 5.61829 27.3 6.47506 27.3 7.36842V22.5263H13.7V30.9474H6.9C5.99826 30.9474 5.13346 30.5925 4.49584 29.9608C3.85821 29.3291 3.5 28.4723 3.5 27.5789V7.36842C3.5 6.47506 3.85821 5.61829 4.49584 4.98659C5.13346 4.35489 5.99826 4 6.9 4ZM6.9 9.05263V12.4211H10.3V9.05263H6.9ZM23.9 12.4211V9.05263H13.7V12.4211H23.9ZM6.9 15.7895V19.1579H10.3V15.7895H6.9ZM13.7 15.7895V19.1579H23.9V15.7895H13.7ZM6.9 22.5263V25.8947H10.3V22.5263H6.9Z" fill="#4F46E5"/>
</svg>
