<svg width="41" height="40" viewBox="0 0 41 40" fill="none" xmlns="http://www.w3.org/2000/svg">
<path d="M31.0996 7.43384L27.8496 9.59971L13.5496 9.59971L10.2996 7.43384L10.2996 32.5654L13.5496 30.3996L27.8496 30.3996L31.0996 32.5654L31.0996 7.43384ZM28.497 19.7712C28.5588 21.8785 27.7649 23.9213 26.2957 25.434C24.8268 26.9464 22.8081 27.7999 20.6996 27.7996C17.913 27.7996 15.338 26.313 13.9445 23.8996C12.5514 21.4862 12.5514 18.513 13.9445 16.0996C15.338 13.6862 17.913 12.1996 20.6996 12.1996C22.7288 12.1993 24.6783 12.99 26.1341 14.4038C27.5899 15.8172 28.4375 17.7425 28.497 19.7712Z" fill="#4F46E5"/>
<path d="M32.4004 7L38.9004 7L37.244 9.6L38.9004 12.2L37.244 14.8L38.9004 17.4L37.244 20L38.9004 22.6L37.244 25.2L38.9004 27.8L37.244 30.4L38.9004 33L32.4004 33L32.4004 7Z" fill="#4F46E5"/>
<path d="M9 33L2.5 33L4.15635 30.4L2.5 27.8L4.15635 25.2L2.5 22.6L4.15635 20L2.5 17.4L4.15635 14.8L2.5 12.2L4.15635 9.6L2.5 7L9 7L9 33Z" fill="#4F46E5"/>
<path d="M27.1965 19.8102C27.1471 18.1199 26.4408 16.5154 25.2276 15.3374C24.0144 14.1593 22.39 13.5005 20.6991 13.5005C18.3779 13.5022 16.2338 14.7413 15.0736 16.7517C13.9135 18.7623 13.9135 21.2387 15.0736 23.2494C16.2338 25.2597 18.3779 26.4988 20.6991 26.5006C22.4561 26.5006 24.1383 25.7893 25.3622 24.5291C26.5862 23.2685 27.2481 21.5664 27.1964 19.8102L27.1965 19.8102ZM24.4798 18.175C24.4845 18.3503 24.4183 18.5203 24.2959 18.6459C24.1734 18.7719 24.0054 18.8427 23.8298 18.8427C23.6572 18.843 23.4918 18.7745 23.3696 18.6526C23.2478 18.5307 23.179 18.3653 23.179 18.1927C23.179 18.02 23.2478 17.8546 23.3696 17.7328C23.4918 17.6109 23.6572 17.5424 23.8298 17.5427C24.1818 17.5427 24.4703 17.823 24.4798 18.175L24.4798 18.175ZM24.4798 21.788C24.4854 21.9639 24.4192 22.1345 24.2967 22.2607C24.1743 22.3872 24.0057 22.4583 23.8298 22.4583C23.6572 22.4589 23.4912 22.3904 23.369 22.2686C23.2469 22.1467 23.1781 21.981 23.1781 21.8083C23.1781 21.6357 23.2469 21.47 23.369 21.3481C23.4912 21.2262 23.6572 21.1578 23.8298 21.1583C24.181 21.1581 24.4688 21.4369 24.4798 21.788L24.4798 21.788ZM21.3491 16.3695C21.354 16.5451 21.2876 16.7151 21.1651 16.8408C21.0426 16.9667 20.8746 17.0375 20.6991 17.0375C20.5264 17.0378 20.361 16.9693 20.2389 16.8475C20.1167 16.7256 20.0482 16.5599 20.0482 16.3875C20.0482 16.2149 20.1167 16.0495 20.2389 15.9276C20.361 15.8057 20.5264 15.7373 20.6991 15.7375C21.0514 15.7373 21.3395 16.0176 21.3491 16.3695ZM21.3491 19.9829C21.354 20.1582 21.2876 20.3282 21.1651 20.4538C21.0426 20.5798 20.8746 20.6506 20.6991 20.6506C20.5264 20.6509 20.3607 20.5827 20.2386 20.4608C20.1164 20.3386 20.0476 20.1732 20.0476 20.0006C20.0476 19.8279 20.1164 19.6625 20.2386 19.5404C20.3607 19.4185 20.5264 19.3503 20.6991 19.3506C21.0514 19.3506 21.3395 19.6309 21.3491 19.9829L21.3491 19.9829ZM21.3491 23.5959C21.354 23.7715 21.2876 23.9412 21.1651 24.0672C21.0426 24.1928 20.8746 24.2636 20.6991 24.2636C20.5264 24.2642 20.3607 24.1957 20.2386 24.0738C20.1164 23.952 20.0476 23.7863 20.0476 23.6136C20.0476 23.441 20.1164 23.2756 20.2386 23.1537C20.3607 23.0315 20.5264 22.9633 20.6991 22.9636C21.0514 22.9636 21.3395 23.2439 21.3491 23.5959ZM18.221 18.1751C18.2259 18.3509 18.1592 18.5212 18.0361 18.6472C17.9131 18.7728 17.7445 18.8436 17.5684 18.8428C17.396 18.8431 17.2303 18.7746 17.1084 18.6527C16.9863 18.5308 16.9178 18.3654 16.9178 18.1928C16.9178 18.0201 16.9863 17.8547 17.1084 17.7328C17.2303 17.611 17.396 17.5425 17.5684 17.5428C17.9215 17.5413 18.2114 17.8219 18.221 18.1751ZM18.2184 21.7881C18.2239 21.9639 18.158 22.1346 18.0353 22.2608C17.9128 22.3873 17.7445 22.4584 17.5684 22.4584C17.3957 22.459 17.23 22.3905 17.1079 22.2686C16.9854 22.1468 16.9169 21.9811 16.9169 21.8084C16.9169 21.6358 16.9854 21.4701 17.1079 21.3482C17.23 21.2263 17.3957 21.1578 17.5684 21.1584C17.9198 21.1581 18.2073 21.437 18.2184 21.7881L18.2184 21.7881Z" fill="#4F46E5"/>
</svg>
