<svg width="24" height="24" viewBox="0 0 24 24" fill="none" xmlns="http://www.w3.org/2000/svg">
<path d="M20.897 3.10285C19.9598 2.16559 18.4402 2.16559 17.5029 3.10285L8.39999 12.2058V15.5999H11.7941L20.897 6.49696C21.8343 5.5597 21.8343 4.0401 20.897 3.10285Z" fill="#9CA3AF"/>
<path fill-rule="evenodd" clip-rule="evenodd" d="M2.39999 7.1999C2.39999 5.87442 3.47451 4.7999 4.79999 4.7999H9.59999C10.2627 4.7999 10.8 5.33716 10.8 5.9999C10.8 6.66264 10.2627 7.1999 9.59999 7.1999H4.79999V19.1999H16.8V14.3999C16.8 13.7372 17.3372 13.1999 18 13.1999C18.6627 13.1999 19.2 13.7372 19.2 14.3999V19.1999C19.2 20.5254 18.1255 21.5999 16.8 21.5999H4.79999C3.47451 21.5999 2.39999 20.5254 2.39999 19.1999V7.1999Z" fill="#9CA3AF"/>
</svg>
