<svg width="24" height="24" viewBox="0 0 24 24" fill="none" xmlns="http://www.w3.org/2000/svg">
<path fill-rule="evenodd" clip-rule="evenodd" d="M7.31697 3.54333C7.46047 3.54189 7.57785 3.65701 7.57614 3.79855V6.25274H8.07985V3.79855C8.07741 3.66109 8.18918 3.54525 8.33097 3.54333C8.47666 3.54189 8.59381 3.65701 8.5921 3.79855V6.25274H9.09166V3.79855C9.08971 3.66109 9.20319 3.54525 9.34327 3.54333C9.48872 3.54189 9.60635 3.65701 9.6044 3.79855V6.25274H10.1059V3.79855C10.104 3.66109 10.2174 3.54525 10.3595 3.54333C10.503 3.54189 10.6206 3.65701 10.6186 3.79855V6.33659C10.6186 6.35461 10.6186 6.37072 10.6143 6.38874C10.584 7.32554 10.2518 8.17479 9.7296 8.6439C9.55974 8.79699 9.37305 8.90489 9.17879 8.96281V12.5237L9.50679 15.1758C9.62661 16.1585 8.05498 16.1585 8.17699 15.1758C8.28388 14.2943 8.43153 13.0922 8.50279 12.528V8.96133C8.30853 8.90341 8.12379 8.79743 7.95198 8.64435C7.42558 8.17188 7.09169 7.31418 7.06539 6.36926C7.06539 6.35964 7.06295 6.34739 7.06295 6.33753V3.7995C7.06149 3.66083 7.17518 3.54502 7.31697 3.54333ZM13.5201 3.49335C14.5468 3.49335 15.3809 4.72933 15.3809 6.25274C15.3809 7.58267 14.7411 8.72495 13.8586 8.96643V12.5232L14.1844 15.1753C14.3057 16.158 12.7326 16.158 12.8541 15.1753C12.9634 14.2938 13.1113 13.0917 13.1799 12.5275V8.96661C12.2972 8.72317 11.6576 7.58285 11.6576 6.25293C11.658 4.72902 12.4918 3.49335 13.5201 3.49335ZM20.7098 2.37684L22.0501 4.63397V22.9885H4.80058C3.97646 22.9885 3.24138 22.7314 2.7357 22.3466C2.22735 21.9616 1.95157 21.4711 1.95157 20.9385C1.95157 20.4059 2.22685 19.9165 2.7357 19.531C3.24136 19.1462 3.97665 18.889 4.80058 18.889H20.044C20.3581 18.889 20.7083 18.8114 20.7083 18.3945L20.7098 2.37684ZM4.27747 0.000299169C2.46762 0.000299169 0.923096 1.26249 0.923096 2.91104V21.1185C0.923096 21.94 1.43925 22.6402 2.10719 23.1464C2.81348 23.6847 3.7633 24 4.80002 24H22.5649C22.848 24 23.0769 23.7722 23.0769 23.4932V4.49571C23.0769 4.40607 23.0547 4.31835 23.0081 4.24073L20.6416 0.251138C20.4896 -0.00408108 20.3905 3.93049e-06 20.1413 3.93049e-06L4.27747 0.000299169Z" fill="#6B7280"/>
<path d="M6.23795 20.4305C5.95217 20.4286 5.72082 20.6559 5.72082 20.9374C5.72082 21.2181 5.95217 21.448 6.23795 21.4454H19.8845C20.1695 21.448 20.4026 21.2181 20.4026 20.9374C20.4026 20.6559 20.169 20.4286 19.8845 20.4305H6.23795Z" fill="#6B7280"/>
</svg>
