<svg width="24" height="24" viewBox="0 0 24 24" fill="none" xmlns="http://www.w3.org/2000/svg">
<path fill-rule="evenodd" clip-rule="evenodd" d="M13.7871 3.80503C13.3323 1.93153 10.6678 1.93153 10.213 3.80503C9.91915 5.01529 8.53256 5.58964 7.46902 4.94161C5.82264 3.93845 3.93857 5.82252 4.94173 7.4689C5.58976 8.53244 5.01542 9.91902 3.80515 10.2128C1.93165 10.6677 1.93165 13.3321 3.80515 13.787C5.01542 14.0808 5.58976 15.4674 4.94173 16.5309C3.93857 18.1773 5.82264 20.0614 7.46902 19.0582C8.53256 18.4102 9.91915 18.9845 10.213 20.1948C10.6678 22.0683 13.3323 22.0683 13.7871 20.1948C14.0809 18.9845 15.4675 18.4102 16.531 19.0582C18.1774 20.0614 20.0615 18.1773 19.0583 16.5309C18.4103 15.4674 18.9846 14.0808 20.1949 13.787C22.0684 13.3321 22.0684 10.6677 20.1949 10.2128C18.9846 9.91902 18.4103 8.53244 19.0583 7.4689C20.0615 5.82252 18.1774 3.93845 16.531 4.94161C15.4675 5.58964 14.0809 5.01529 13.7871 3.80503ZM12 15.5999C13.9883 15.5999 15.6 13.9881 15.6 11.9999C15.6 10.0117 13.9883 8.3999 12 8.3999C10.0118 8.3999 8.40002 10.0117 8.40002 11.9999C8.40002 13.9881 10.0118 15.5999 12 15.5999Z" fill="#4F46E5"/>
</svg>
