<svg width="24" height="24" viewBox="0 0 24 24" fill="none" xmlns="http://www.w3.org/2000/svg">
<path d="M10.4245 0.923096C5.17701 0.923096 0.923096 5.22278 0.923096 10.5267C0.923096 15.8306 5.17701 20.1303 10.4245 20.1303C15.672 20.1303 19.9259 15.8306 19.9259 10.5267C19.9259 7.97967 18.9248 5.53695 17.143 3.73593C15.3611 1.9349 12.9444 0.923096 10.4245 0.923096Z" fill="#6B7280"/>
<path d="M22.5984 20.5474L19.7686 18.2632C19.3405 17.8379 18.6542 17.8379 18.226 18.2632C18.004 18.4868 17.8792 18.7906 17.8792 19.1073C17.8792 19.4241 18.004 19.7279 18.226 19.9515L20.5743 22.6429C21.1468 23.2216 22.0751 23.2216 22.6476 22.6429C23.2201 22.0642 23.2201 21.126 22.6476 20.5474H22.5984Z" fill="#6B7280"/>
</svg>
