<svg width="24" height="24" viewBox="0 0 24 24" fill="none" xmlns="http://www.w3.org/2000/svg">
<path d="M3.60005 3.00002C3.26868 3.00002 3.00005 3.26865 3.00005 3.60002V6.00001C3.00005 6.33138 2.73142 6.60001 2.40005 6.60001C2.06868 6.60001 1.80005 6.33138 1.80005 6.00001V3.60002C1.80005 2.60591 2.60594 1.80003 3.60005 1.80003H6.00005C6.33142 1.80003 6.60005 2.06865 6.60005 2.40002C6.60005 2.73139 6.33142 3.00002 6.00005 3.00002H3.60005Z" fill="#4F46E5"/>
<path d="M20.4 21C20.7314 21 21 20.7313 21 20.4V18C21 17.6686 21.2687 17.4 21.6 17.4C21.9314 17.4 22.2 17.6686 22.2 18V20.4C22.2 21.3941 21.3942 22.2 20.4 22.2H18C17.6687 22.2 17.4 21.9313 17.4 21.6C17.4 21.2686 17.6687 21 18 21H20.4Z" fill="#4F46E5"/>
<path d="M20.4 3.00002C20.7314 3.00002 21 3.26865 21 3.60002V6.00001C21 6.33138 21.2687 6.60001 21.6 6.60001C21.9314 6.60001 22.2 6.33138 22.2 6.00001V3.60002C22.2 2.60591 21.3942 1.80003 20.4 1.80003H18C17.6687 1.80003 17.4 2.06865 17.4 2.40002C17.4 2.73139 17.6687 3.00002 18 3.00002H20.4Z" fill="#4F46E5"/>
<path d="M3.00005 20.4C3.00005 20.7313 3.26868 21 3.60005 21H6.00005C6.33142 21 6.60005 21.2686 6.60005 21.6C6.60005 21.9313 6.33142 22.2 6.00005 22.2H3.60005C2.60594 22.2 1.80005 21.3941 1.80005 20.4V18C1.80005 17.6686 2.06868 17.4 2.40005 17.4C2.73142 17.4 3.00005 17.6686 3.00005 18L3.00005 20.4Z" fill="#4F46E5"/>
<path d="M15.84 7.20034H18.6854C18.9545 7.20034 19.1863 7.39895 19.1995 7.65727C19.2027 7.72223 19.1922 7.78714 19.1685 7.84807C19.1449 7.90901 19.1086 7.96469 19.0618 8.01174C19.0151 8.05879 18.9588 8.09623 18.8966 8.12179C18.8343 8.14734 18.7672 8.16048 18.6995 8.16041H18.6182L17.5496 17.8757C17.5177 18.2359 17.3466 18.5715 17.0698 18.8166C16.7931 19.0617 16.4308 19.1985 16.0543 19.2H14.5166C14.5018 19.1999 14.4873 19.1958 14.4748 19.1881C14.4623 19.1803 14.4523 19.1694 14.4461 19.1564C14.4399 19.1435 14.4376 19.1291 14.4396 19.115C14.4416 19.1009 14.4477 19.0876 14.4572 19.0767C14.687 18.8079 14.8702 18.5054 15 18.1808C15.0242 18.1222 15.0715 18.0751 15.1316 18.0497C15.4789 17.9013 15.7864 17.679 16.0309 17.3995C16.4621 16.9099 16.6996 16.2712 16.6996 15.6009C16.6994 15.2783 16.6428 14.958 16.5321 14.6535C16.5129 14.5994 16.5145 14.5405 16.5368 14.4875C16.7284 14.0299 16.7511 13.5231 16.6011 13.0514C16.4512 12.5796 16.1376 12.1714 15.7125 11.8945C15.6597 11.8604 15.6228 11.8078 15.6097 11.7481C15.5437 11.4413 15.4374 11.1438 15.2934 10.8627C15.0362 10.363 14.6634 9.92633 14.2035 9.58611C13.3767 8.96746 12.2936 8.64044 11.075 8.64044C11.0113 8.64048 10.9499 8.61807 10.9024 8.57747C10.8548 8.53686 10.8245 8.4809 10.8172 8.42022L10.7859 8.16041H10.7C10.6323 8.1604 10.5653 8.1472 10.5031 8.12161C10.4409 8.09602 10.3848 8.05857 10.3381 8.01152C10.2914 7.96448 10.2551 7.90883 10.2315 7.84793C10.2079 7.78704 10.1974 7.72218 10.2006 7.65727C10.2141 7.39895 10.445 7.20034 10.714 7.20034H14.8094L15.2147 5.64383C15.2349 5.56599 15.2752 5.49425 15.3317 5.43519C15.3883 5.37612 15.4593 5.3316 15.5384 5.30571L17.0071 4.82568C17.0712 4.8047 17.1391 4.79645 17.2066 4.80142C17.2741 4.80639 17.3399 4.82447 17.3999 4.85457C17.4599 4.88468 17.5129 4.92617 17.5557 4.97654C17.5985 5.02691 17.6302 5.08511 17.6489 5.1476C17.7224 5.39601 17.5708 5.65583 17.3161 5.73894L16.1187 6.13047L15.84 7.20034Z" fill="#4F46E5"/>
<path d="M7.79033 14.3005C7.70469 14.2668 7.61291 14.2496 7.5203 14.25H5.03483C4.97256 14.25 4.91284 14.2263 4.86881 14.1841C4.82478 14.1419 4.80005 14.0847 4.80005 14.025C4.80038 13.7657 4.89397 13.5145 5.06504 13.3137C5.23611 13.1129 5.4742 12.9747 5.73918 12.9225C5.78526 11.2904 7.14142 10.2 9.14353 10.2H11.2566C12.1913 10.2 13.0078 10.4407 13.6188 10.8975C14.2794 11.3886 14.6369 12.0875 14.6609 12.9225C14.9259 12.9747 15.164 13.1129 15.3351 13.3137C15.5061 13.5145 15.5997 13.7657 15.6 14.025V14.0272C15.5997 14.0568 15.5934 14.086 15.5813 14.1132C15.5692 14.1404 15.5516 14.165 15.5296 14.1857C15.5076 14.2064 15.4815 14.2227 15.4529 14.2337C15.4243 14.2448 15.3938 14.2503 15.3629 14.25H9.59372C9.50111 14.2496 9.40933 14.2668 9.32369 14.3005C9.23806 14.3343 9.16026 14.3841 9.09481 14.4469L8.6405 14.8831C8.6296 14.8935 8.61666 14.9018 8.6024 14.9075C8.58815 14.9132 8.57288 14.9161 8.55745 14.9161C8.54202 14.9161 8.52675 14.9132 8.5125 14.9075C8.49824 14.9018 8.4853 14.8935 8.4744 14.8831L8.01921 14.4469C7.95376 14.3841 7.87596 14.3343 7.79033 14.3005Z" fill="#4F46E5"/>
<path d="M9.69753 15.1671C9.72603 15.1558 9.75658 15.15 9.78742 15.15H15.1111C15.2213 15.1495 15.3282 15.1863 15.4128 15.254C15.4974 15.3217 15.5544 15.4158 15.5736 15.5198C15.5913 15.6205 15.6001 15.7224 15.6 15.8244C15.6 16.6853 14.9799 17.3862 14.2131 17.3994C14.1418 17.8247 13.9692 18.2088 13.7095 18.5095C13.3253 18.9547 12.7668 19.2 12.137 19.2H8.26309C7.63329 19.2 7.0748 18.9547 6.69063 18.5101C6.43091 18.2094 6.25834 17.8252 6.18703 17.4C5.42017 17.3862 4.80005 16.6853 4.80005 15.825C4.8 15.7229 4.80883 15.621 4.82646 15.5204C4.84557 15.4163 4.90248 15.322 4.98712 15.2542C5.07176 15.1864 5.17868 15.1495 5.28898 15.15H7.32572C7.35656 15.15 7.38711 15.1558 7.41561 15.1671C7.44411 15.1783 7.47001 15.1949 7.49183 15.2158L8.14159 15.8388C8.25166 15.9442 8.40093 16.0035 8.55657 16.0035C8.71221 16.0035 8.86148 15.9442 8.97155 15.8388L9.62131 15.2158C9.64313 15.1949 9.66903 15.1783 9.69753 15.1671Z" fill="#4F46E5"/>
</svg>
