<svg width="24" height="24" viewBox="0 0 24 24" fill="none" xmlns="http://www.w3.org/2000/svg">
<path d="M9.6001 6.00002C8.93736 6.00002 8.4001 6.53728 8.4001 7.20002C8.4001 7.86276 8.93736 8.40002 9.6001 8.40002L16.303 8.40002L14.7516 9.9515C14.2829 10.4201 14.2829 11.1799 14.7516 11.6486C15.2202 12.1172 15.98 12.1172 16.4486 11.6486L20.0486 8.04855C20.2737 7.82351 20.4001 7.51829 20.4001 7.20003C20.4001 6.88177 20.2737 6.57654 20.0486 6.3515L16.4486 2.7515C15.98 2.28287 15.2202 2.28287 14.7516 2.7515C14.2829 3.22012 14.2829 3.97992 14.7516 4.44855L16.303 6.00002L9.6001 6.00002Z" fill="#9CA3AF"/>
<path d="M14.4001 18C15.0628 18 15.6001 17.4628 15.6001 16.8C15.6001 16.1373 15.0628 15.6 14.4001 15.6L7.69715 15.6L9.24863 14.0486C9.71726 13.5799 9.71726 12.8201 9.24863 12.3515C8.78 11.8829 8.0202 11.8829 7.55157 12.3515L3.95157 15.9515C3.72653 16.1765 3.6001 16.4818 3.6001 16.8C3.6001 17.1183 3.72653 17.4235 3.95157 17.6486L7.55157 21.2486C8.0202 21.7172 8.78 21.7172 9.24863 21.2486C9.71726 20.7799 9.71726 20.0201 9.24863 19.5515L7.69715 18L14.4001 18Z" fill="#9CA3AF"/>
</svg>
