<svg width="24" height="24" viewBox="0 0 24 24" fill="none" xmlns="http://www.w3.org/2000/svg">
<path fill-rule="evenodd" clip-rule="evenodd" d="M10.8001 2.40002C10.3456 2.40002 9.93006 2.65683 9.72679 3.06337L8.85846 4.80002H4.8001C4.13736 4.80002 3.6001 5.33728 3.6001 6.00002C3.6001 6.66277 4.13736 7.20002 4.8001 7.20002L4.8001 19.2C4.8001 20.5255 5.87461 21.6 7.2001 21.6H16.8001C18.1256 21.6 19.2001 20.5255 19.2001 19.2V7.20002C19.8628 7.20002 20.4001 6.66277 20.4001 6.00002C20.4001 5.33728 19.8628 4.80002 19.2001 4.80002H15.1417L14.2734 3.06337C14.0701 2.65683 13.6546 2.40002 13.2001 2.40002H10.8001ZM8.4001 9.60002C8.4001 8.93728 8.93736 8.40002 9.6001 8.40002C10.2628 8.40002 10.8001 8.93728 10.8001 9.60002V16.8C10.8001 17.4628 10.2628 18 9.6001 18C8.93736 18 8.4001 17.4628 8.4001 16.8V9.60002ZM14.4001 8.40002C13.7374 8.40002 13.2001 8.93728 13.2001 9.60002V16.8C13.2001 17.4628 13.7374 18 14.4001 18C15.0628 18 15.6001 17.4628 15.6001 16.8V9.60002C15.6001 8.93728 15.0628 8.40002 14.4001 8.40002Z" fill="#9CA3AF"/>
</svg>
