<svg width="20" height="20" viewBox="0 0 20 20" fill="none" xmlns="http://www.w3.org/2000/svg">
<path d="M10.4727 0.496928C10.1709 0.36756 9.82918 0.36756 9.52732 0.496928L1.12732 4.09693C0.686101 4.28602 0.400024 4.71987 0.400024 5.1999C0.400024 5.67994 0.686101 6.11378 1.12732 6.30288L4.30047 7.6628C4.41586 7.53206 4.5605 7.42558 4.72732 7.35409L9.52732 5.29694C10.1365 5.03588 10.8419 5.31806 11.103 5.92721C11.3641 6.53637 11.0819 7.24182 10.4727 7.50289L7.20004 8.90547L9.52732 9.90288C9.82918 10.0322 10.1709 10.0322 10.4727 9.90288L18.8727 6.30288C19.3139 6.11378 19.6 5.67994 19.6 5.1999C19.6 4.71987 19.3139 4.28602 18.8727 4.09693L10.4727 0.496928Z" fill="#4F46E5"/>
<path d="M1.97208 9.27598L4.00002 10.1451V15.0671C3.5887 14.9738 3.16849 14.904 2.74087 14.8591C2.17715 14.8 1.73166 14.3545 1.67255 13.7908C1.62458 13.3333 1.60002 12.8692 1.60002 12.3997C1.60002 11.3239 1.72892 10.2777 1.97208 9.27598Z" fill="#4F46E5"/>
<path d="M9.15997 17.8869C8.35252 17.0953 7.42203 16.43 6.40002 15.922V11.1737L8.58191 12.1088C9.48749 12.4969 10.5126 12.4969 11.4181 12.1088L18.028 9.27598C18.2711 10.2777 18.4 11.3239 18.4 12.3997C18.4 12.8692 18.3755 13.3333 18.3275 13.7908C18.2684 14.3545 17.8229 14.8 17.2592 14.8591C14.7718 15.12 12.5349 16.2255 10.8401 17.8869C10.3735 18.3443 9.6266 18.3443 9.15997 17.8869Z" fill="#4F46E5"/>
<path d="M5.20002 19.5999C5.86277 19.5999 6.40002 19.0626 6.40002 18.3999V15.922C5.64566 15.5471 4.84143 15.2579 4.00002 15.0671V18.3999C4.00002 19.0626 4.53728 19.5999 5.20002 19.5999Z" fill="#4F46E5"/>
</svg>
