<svg width="20" height="20" viewBox="0 0 20 20" fill="none" xmlns="http://www.w3.org/2000/svg">
<path d="M10.5829 6.00093C10.5829 6.31636 10.3216 6.57236 9.99955 6.57236C9.67755 6.57236 9.41622 6.31636 9.41622 6.00093C9.41622 5.95636 9.43255 5.91693 9.44189 5.87522H9.43022L9.87764 4.38893C9.91672 4.25293 10.0824 4.25293 10.1209 4.38893L10.5677 5.8735H10.5561C10.5666 5.91579 10.5829 5.95579 10.5829 6.00093Z" fill="#4F46E5"/>
<path d="M15.25 4.28571H13.6838C13.0263 2.93657 11.6246 2 10 2C8.37542 2 6.97367 2.93657 6.31625 4.28571H4.75C3.78517 4.28571 3 5.05486 3 6V16.2857C3 17.2309 3.78517 18 4.75 18H15.25C16.2148 18 17 17.2309 17 16.2857V6C17 5.05486 16.2148 4.28571 15.25 4.28571ZM10 3.14286C11.6083 3.14286 12.9167 4.42457 12.9167 6C12.9167 7.57543 11.6083 8.85714 10 8.85714C8.39175 8.85714 7.08333 7.57543 7.08333 6C7.08333 4.42457 8.39175 3.14286 10 3.14286ZM14.6667 15.4286C14.6667 15.5863 14.536 15.7143 14.375 15.7143H5.625C5.464 15.7143 5.33333 15.5863 5.33333 15.4286V12C5.33333 11.8423 5.464 11.7143 5.625 11.7143H14.375C14.536 11.7143 14.6667 11.8423 14.6667 12V15.4286Z" fill="#4F46E5"/>
</svg>
