<svg width="30" height="59" viewBox="0 0 30 59" fill="none" xmlns="http://www.w3.org/2000/svg">
<path fill-rule="evenodd" clip-rule="evenodd" d="M7.83594 0C6.17908 0 4.83594 1.34315 4.83594 3V6H25.8359V3C25.8359 1.34315 24.4928 0 22.8359 0H7.83594ZM0.835938 11C0.835938 9.34315 2.17908 8 3.83594 8H26.8359C28.4928 8 29.8359 9.34315 29.8359 11V56C29.8359 57.6569 28.4928 59 26.8359 59H3.83594C2.17908 59 0.835938 57.6569 0.835938 56V11ZM3.8361 12.994C3.83613 11.8895 4.73155 11 5.83609 11H24.8359C25.9405 11 26.8359 11.8895 26.8359 12.9941C26.8359 16.9615 26.8358 25.6593 26.8359 27.946C22.5154 29.8719 19.0893 28.7744 15.6936 27.6866C12.0594 26.5224 8.45999 25.3693 3.83616 27.946C3.83578 25.6593 3.83598 16.9614 3.8361 12.994Z" fill="#4F46E5"/>
</svg>
