<svg width="24" height="59" viewBox="0 0 24 59" fill="none" xmlns="http://www.w3.org/2000/svg">
<path fill-rule="evenodd" clip-rule="evenodd" d="M7 0C5.34315 0 4 1.34315 4 3V6H20V3C20 1.34315 18.6569 0 17 0H7ZM0 11C0 9.34315 1.34315 8 3 8H21C22.6569 8 24 9.34315 24 11V56C24 57.6569 22.6569 59 21 59H3C1.34315 59 0 57.6569 0 56V11ZM3.00013 12.994C3.00015 11.8894 3.89557 11 5.00012 11H19.0001C20.1047 11 21.0002 11.8895 21.0002 12.9941C21.0001 16.9712 21 25.7048 21.0002 28C17.6189 29.9321 14.9376 28.8311 12.28 27.7398C9.43582 26.5719 6.61886 25.4152 3.00018 28C2.99987 25.7048 3.00003 16.971 3.00013 12.994Z" fill="#4F46E5"/>
</svg>
