<svg width="39" height="41" viewBox="0 0 39 41" fill="none" xmlns="http://www.w3.org/2000/svg">
<path d="M38.5559 2.67488C38.398 2.16145 38.1314 1.68757 37.7741 1.28507C37.4168 0.88258 36.977 0.560787 36.4843 0.341311C35.9949 0.113672 35.4602 -0.00130238 34.92 0.0049412H4.50129C3.96129 -0.0252573 3.42257 0.0833453 2.93702 0.320288C2.43357 0.542205 1.98593 0.872505 1.62641 1.28735C1.26927 1.68915 1.0026 2.16223 0.844276 2.67488C0.680453 3.18354 0.629959 3.72158 0.696304 4.25161L4.16307 33.684C4.39559 35.698 5.36798 37.5522 6.88997 38.8977C8.37773 40.2416 10.3129 40.9904 12.3226 41H27.1198C29.1361 40.9916 31.0783 40.243 32.5736 38.8977C34.0757 37.5392 35.0361 35.6886 35.2794 33.684L37.1607 17.1388V16.8865L38.6193 4.27263C38.7011 3.74092 38.6796 3.19852 38.5559 2.67488ZM34.1167 15.541C29.6565 16.403 25.8515 16.5712 21.814 13.4387C16.8041 9.50739 10.7372 10.7688 4.90293 12.829L3.84598 3.91524C3.82519 3.82531 3.82519 3.73187 3.84598 3.64194C3.87476 3.55361 3.92568 3.47402 3.99396 3.41069C4.04398 3.3331 4.11825 3.274 4.20534 3.2425C4.28827 3.21912 4.37609 3.21912 4.45901 3.2425H35.1525C35.2318 3.28659 35.3033 3.34342 35.3639 3.41069C35.4273 3.47375 35.4696 3.55574 35.4908 3.64194C35.523 3.73743 35.523 3.84077 35.4908 3.93626L34.1167 15.541Z" fill="#4F46E5"/>
</svg>
