<svg width="20" height="20" viewBox="0 0 20 20" fill="none" xmlns="http://www.w3.org/2000/svg">
<path d="M9.67626 2.13778C9.46043 2.34126 4.02158 7.55027 4.02158 11.864C3.95118 12.6444 4.05346 13.4301 4.32193 14.1713C4.59041 14.9126 5.01923 15.5931 5.58125 16.17C6.14326 16.7468 6.82621 17.2073 7.58685 17.5223C8.34748 17.8373 9.16921 18 10 18C10.8308 18 11.6525 17.8373 12.4132 17.5223C13.1738 17.2073 13.8567 16.7468 14.4188 16.17C14.9808 15.5931 15.4096 14.9126 15.6781 14.1713C15.9465 13.4301 16.0488 12.6444 15.9784 11.864C15.9784 7.55027 10.5396 2.38195 10.3237 2.13778C10.2832 2.09448 10.2334 2.0598 10.1776 2.03604C10.1218 2.01229 10.0612 2 10 2C9.93876 2 9.87822 2.01229 9.8224 2.03604C9.76658 2.0598 9.71677 2.09448 9.67626 2.13778ZM11.705 14.6313C12.3845 14.285 12.9289 13.7432 13.259 13.0848C13.3157 13.0054 13.4002 12.9474 13.4978 12.9209C13.5953 12.8945 13.6997 12.9013 13.7924 12.9402C13.8852 12.979 13.9605 13.0475 14.005 13.1335C14.0495 13.2195 14.0605 13.3175 14.036 13.4104C13.6334 14.2213 12.9684 14.891 12.1367 15.3231H11.9209C11.8436 15.3086 11.7719 15.2745 11.7138 15.2243C11.6556 15.1742 11.6131 15.11 11.5909 15.0388C11.5686 14.9675 11.5675 14.8918 11.5876 14.82C11.6078 14.7482 11.6484 14.6829 11.705 14.6313Z" fill="#4F46E5"/>
</svg>
