<svg width="20" height="20" viewBox="0 0 20 20" fill="none" xmlns="http://www.w3.org/2000/svg">
<path d="M16 3C16.5523 3 17 3.37868 17 4V7.875C17 8.49632 17.4477 9 18 9C18.5523 9 19 8.49632 19 7.875V4C19 2.13604 17.6569 1 16 1L12 1C11.4477 1 11 1.37868 11 2C11 2.62132 11.4477 3 12 3H16Z" fill="black"/>
<path d="M4 3C3.44772 3 3 3.44772 3 4V8C3 8.55228 2.55228 9 2 9C1.44772 9 1 8.55228 1 8V4C1 2.34315 2.34315 1 4 1H8C8.55228 1 9 1.44772 9 2C9 2.55228 8.55228 3 8 3H4Z" fill="black"/>
<path d="M16 17C16.5523 17 17 16.5523 17 16V12C17 11.4477 17.4477 11 18 11C18.5523 11 19 11.4477 19 12V16C19 17.6569 17.6569 19 16 19H12C11.4477 19 11 18.5523 11 18C11 17.4477 11.4477 17 12 17H16Z" fill="black"/>
<path d="M3 16C3 16.5523 3.44772 17 4 17H8C8.55228 17 9 17.4477 9 18C9 18.5523 8.55228 19 8 19H4C2.34315 19 1 17.6569 1 16L1 12C1 11.4477 1.44772 11 2 11C2.55229 11 3 11.4477 3 12L3 16Z" fill="black"/>
<path d="M5 9C4.44772 9 4 9.44771 4 10C4 10.5523 4.44771 11 5 11H15C15.5523 11 16 10.5523 16 10C16 9.44771 15.5523 9 15 9H5Z" fill="black"/>
</svg>
